<?xml version="1.0" encoding="utf-8"?>
<!-- Generator: Adobe Illustrator 12.0.0, SVG Export Plug-In . SVG Version: 6.00 Build 51448)  -->
<!DOCTYPE svg PUBLIC "-//W3C//DTD SVG 1.1//EN" "http://www.w3.org/Graphics/SVG/1.1/DTD/svg11.dtd" [
	<!ENTITY ns_svg "http://www.w3.org/2000/svg">
	<!ENTITY ns_xlink "http://www.w3.org/1999/xlink">
]>
<svg  version="1.1" id="Layer_1" xmlns="&ns_svg;" xmlns:xlink="&ns_xlink;" width="86.193" height="86.353"
	 viewBox="0 0 86.193 86.353" overflow="visible" enable-background="new 0 0 86.193 86.353" xml:space="preserve">
<path fill="none" stroke="#02B3E4" stroke-width="6.1243" d="M3.408,18.433l25.49-14.884l2.908,1.711l0.514,40.203
	c0,0,3.078,23.61,24.634,23.438c21.557-0.17,26.176-20.529,26.176-20.529V5.773l-3.249-1.882L60.376,15.183V54.7
	c0,0,3.215,27.034-30.965,28.571c-18.988,0.856-26.345-25.66-26.345-25.66L3.408,18.433z"/>
<path fill="none" stroke="#02B3E4" stroke-width="4.5932" d="M3.237,57.611c0,0,4.06,21.373,20.87,24.977
	c7.186,1.541,22.583-2.396,22.583-2.396l26.516-15.396c0,0,10.266-7.53,10.096-23.608"/>
</svg>
